<svg xmlns="http://www.w3.org/2000/svg" viewBox="0 0 141.73 26.21"><defs><style>.cls-1{fill:#fff;}.cls-2{fill:#f37029;}</style></defs><title>Recurso 1</title><g id="Capa_2" data-name="Capa 2"><g id="guías"><path class="cls-1" d="M141.64,4a.31.31,0,0,1,.09.22V7.34a.32.32,0,0,1-.09.23.31.31,0,0,1-.22.09h-4.61a.12.12,0,0,0-.13.13V22a.32.32,0,0,1-.09.23.31.31,0,0,1-.22.09h-3.74a.29.29,0,0,1-.22-.09.32.32,0,0,1-.09-.23V7.79c0-.09,0-.13-.14-.13h-4.44a.29.29,0,0,1-.22-.09.29.29,0,0,1-.1-.23V4.21a.28.28,0,0,1,.1-.22.29.29,0,0,1,.22-.09h13.68A.31.31,0,0,1,141.64,4Z"/><path class="cls-1" d="M46.46,7.54a.29.29,0,0,1-.22.09H38a.12.12,0,0,0-.13.13V11c0,.09,0,.13.13.13h5.29a.29.29,0,0,1,.22.09.32.32,0,0,1,.09.23v3.07a.32.32,0,0,1-.09.23.29.29,0,0,1-.22.09H38c-.09,0-.13,0-.13.13v3.47c0,.09,0,.13.13.13h8.26a.34.34,0,0,1,.32.32V22a.29.29,0,0,1-.1.23.29.29,0,0,1-.22.09H33.8a.29.29,0,0,1-.22-.09.33.33,0,0,1-.1-.23V4.21a.32.32,0,0,1,.1-.22.29.29,0,0,1,.22-.09H46.24a.29.29,0,0,1,.22.09.28.28,0,0,1,.1.22V7.32A.27.27,0,0,1,46.46,7.54Z"/><path class="cls-1" d="M49.83,22.2c-.06-.07,0-.15,0-.26l5-8.76a.12.12,0,0,0,0-.16l-5-8.75-.05-.16c0-.14.1-.21.29-.21h4a.42.42,0,0,1,.4.21l3,5.52c.05.07.1.07.16,0l3-5.52a.4.4,0,0,1,.4-.21h4c.12,0,.2,0,.23.1a.29.29,0,0,1,0,.27L60.37,13a.43.43,0,0,0,0,.16l4.95,8.76a.47.47,0,0,1,.05.16c0,.14-.09.21-.26.21h-4a.44.44,0,0,1-.39-.21l-3-5.5c-.06-.09-.11-.09-.16,0l-3,5.5a.44.44,0,0,1-.4.21h-4A.3.3,0,0,1,49.83,22.2Z"/><path class="cls-1" d="M68.7,22.24a.32.32,0,0,1-.09-.23V4.23a.31.31,0,0,1,.31-.31h3.74a.29.29,0,0,1,.22.09.31.31,0,0,1,.09.22V22a.32.32,0,0,1-.09.23.29.29,0,0,1-.22.09H68.92A.31.31,0,0,1,68.7,22.24Z"/><path class="cls-1" d="M79.59,21.82a5.57,5.57,0,0,1-2.5-2,5.2,5.2,0,0,1-.88-3v-.5a.29.29,0,0,1,.09-.22.32.32,0,0,1,.23-.09h3.65a.33.33,0,0,1,.23.09.29.29,0,0,1,.09.22v.32a1.85,1.85,0,0,0,.87,1.51,3.8,3.8,0,0,0,2.34.64,2.46,2.46,0,0,0,1.71-.5A1.52,1.52,0,0,0,86,17.13a1.17,1.17,0,0,0-.33-.86,2.6,2.6,0,0,0-.88-.55c-.37-.15-.94-.35-1.71-.62a2.08,2.08,0,0,0-.32-.12,1.4,1.4,0,0,1-.29-.09,20.36,20.36,0,0,1-3-1.19,6.39,6.39,0,0,1-2.15-1.79,4.46,4.46,0,0,1-.9-2.83,4.83,4.83,0,0,1,.86-2.85,5.35,5.35,0,0,1,2.38-1.88,8.55,8.55,0,0,1,3.44-.66,8.67,8.67,0,0,1,3.64.73A6.1,6.1,0,0,1,89.28,6.5a5.28,5.28,0,0,1,.92,3.08V10a.29.29,0,0,1-.09.22.31.31,0,0,1-.22.09H86.23a.31.31,0,0,1-.31-.31V9.76a2.15,2.15,0,0,0-.82-1.63,3.21,3.21,0,0,0-2.18-.71,2.7,2.7,0,0,0-1.61.42A1.4,1.4,0,0,0,80.73,9a1.37,1.37,0,0,0,.37,1,3.62,3.62,0,0,0,1.15.71c.51.22,1.31.5,2.38.85a30.2,30.2,0,0,1,2.86,1.11,5.65,5.65,0,0,1,1.94,1.53,4.23,4.23,0,0,1,.9,2.81,5,5,0,0,1-.86,2.94A5.54,5.54,0,0,1,87,21.85a9.1,9.1,0,0,1-3.64.67A9.48,9.48,0,0,1,79.59,21.82Z"/><path class="cls-1" d="M97,21.74a6.12,6.12,0,0,1-2.51-2.4,7.09,7.09,0,0,1-.9-3.61V10.47a6.84,6.84,0,0,1,.9-3.53A6.12,6.12,0,0,1,97,4.54a8.72,8.72,0,0,1,7.51,0A6.2,6.2,0,0,1,107,6.94a6.84,6.84,0,0,1,.9,3.53v5.26a7.09,7.09,0,0,1-.9,3.61,6.2,6.2,0,0,1-2.52,2.4,8.63,8.63,0,0,1-7.51,0Zm5.78-3.69a3,3,0,0,0,.78-2.18V10.42a3,3,0,0,0-.78-2.17,2.89,2.89,0,0,0-4.05,0,3.08,3.08,0,0,0-.77,2.17v5.45a3.07,3.07,0,0,0,.77,2.18,2.94,2.94,0,0,0,4.05,0Z"/><path class="cls-1" d="M124.1,7.54a.33.33,0,0,1-.23.09h-8.23a.12.12,0,0,0-.13.13V11c0,.09,0,.13.13.13h5.29a.31.31,0,0,1,.22.09.32.32,0,0,1,.09.23v3.07a.32.32,0,0,1-.09.23.31.31,0,0,1-.22.09h-5.29c-.09,0-.13,0-.13.13v7a.32.32,0,0,1-.09.23.33.33,0,0,1-.23.09h-3.73a.33.33,0,0,1-.23-.09.32.32,0,0,1-.09-.23V4.21a.31.31,0,0,1,.09-.22.33.33,0,0,1,.23-.09h12.41a.33.33,0,0,1,.23.09.31.31,0,0,1,.09.22V7.32A.29.29,0,0,1,124.1,7.54Z"/><path class="cls-2" d="M4.11,26.21A3.93,3.93,0,0,1,1.27,25a4.31,4.31,0,0,1,0-6.11L6.44,13.7a1.24,1.24,0,0,0,0-1.75L1.85,7.36a4.33,4.33,0,0,1,0-6.11c1.56-1.56,3.7-1.64,5.87-.2l0,0L13.37,5l5.75-3.94C22-.8,23.9.13,25,1.25c2.13,2.12.74,4.83.28,5.72l-.06.11-2.7,3.62a3.8,3.8,0,0,1-5.25.84L6,3.64c-1.28-.84-1.74-.39-1.93-.19a1.2,1.2,0,0,0,0,1.7L8.65,9.74a4.38,4.38,0,0,1,0,6.16L3.47,21.08a1.19,1.19,0,0,0-.35.85,1.17,1.17,0,0,0,.35.85c.2.2.65.65,1.93-.18l11.07-7.75a4.08,4.08,0,0,1,5.63.9l2.55,3.4.06.12c.45.88,1.84,3.59-.29,5.72a4.6,4.6,0,0,1-5.92.16l-.06,0-5.22-4.17L7.13,25.19A5.54,5.54,0,0,1,4.11,26.21Zm16.24-3.57c.47.32,1.37.64,1.87.14.2-.2.5-.5-.23-2l-2.38-3.18a1,1,0,0,0-1.35-.22l-2.38,1.66ZM16.1,6.91l3,2.08a.7.7,0,0,0,1-.15l2.55-3.41c.73-1.47.44-1.76.22-2s-.64-.65-1.95.2Z"/></g></g></svg>