<svg width="26" height="26" viewBox="0 0 26 26" fill="none" xmlns="http://www.w3.org/2000/svg">
<path opacity="0.2" d="M13 26C20.1797 26 26 20.1797 26 13C26 5.8203 20.1797 0 13 0C5.8203 0 0 5.8203 0 13C0 20.1797 5.8203 26 13 26Z" fill="#505050"/>
<path fill-rule="evenodd" clip-rule="evenodd" d="M14.6576 11.9671L10.8481 8.15754L8.72433 8.72594L8.33793 10.1702L6.54264 11.9671L6 11.4261L7.148 7.14639L11.4261 6L12.2859 6.86142L16.0246 10.5985L14.6576 11.9671ZM11.3424 14.0329L15.1519 17.8425L17.2741 17.2741L17.6621 15.8282L19.4574 14.0329L20 14.5739L18.8536 18.8536L14.5739 20L9.97537 15.3999L11.3424 14.0329ZM8.72594 17.2741L8.15754 15.1519L11.9671 11.3424L10.6001 9.97376L6.86142 13.7141L6 14.5739L7.148 18.852L11.4261 20L11.9671 19.4574L10.1719 17.6605L8.72594 17.2741ZM14.0329 14.6576L17.8441 10.8464L17.2741 8.72433L15.8282 8.33793L14.0329 6.54264L14.5739 6L18.8536 7.14639L20 11.4261L15.3999 16.0246L14.0329 14.6576Z" fill="white"/>
</svg>
