<svg width="26" height="26" viewBox="0 0 26 26" fill="none" xmlns="http://www.w3.org/2000/svg">
<path opacity="0.2" d="M13 26C20.1797 26 26 20.1797 26 13C26 5.8203 20.1797 0 13 0C5.8203 0 0 5.8203 0 13C0 20.1797 5.8203 26 13 26Z" fill="#2C5F93"/>
<path fill-rule="evenodd" clip-rule="evenodd" d="M20.0082 13.0656C20.0082 15.1193 19.1199 17.0711 17.5707 18.4201C16.0216 19.7691 13.9651 20.3772 11.9328 20.0896L12.9179 13.0656H20.0082Z" fill="url(#paint0_linear_1_319)"/>
<path fill-rule="evenodd" clip-rule="evenodd" d="M12.86 20.1819C10.8236 20.1819 8.88813 19.2862 7.55048 17.7239C6.21283 16.1616 5.61083 14.0877 5.89499 12.0382L12.86 13.0317V20.1819Z" fill="url(#paint1_linear_1_319)"/>
<path fill-rule="evenodd" clip-rule="evenodd" d="M5.98236 12.9383C5.98236 10.8846 6.87062 8.93275 8.41981 7.58378C9.969 6.23481 12.0255 5.62666 14.0577 5.91428L13.0726 12.9383H5.98236Z" fill="url(#paint2_linear_1_319)"/>
<path fill-rule="evenodd" clip-rule="evenodd" d="M13.1305 5.82193C15.167 5.82193 17.1024 6.71771 18.4401 8.28001C19.7777 9.84231 20.3808 11.9162 20.0956 13.9656L13.1305 12.9722V5.82193Z" fill="url(#paint3_linear_1_319)"/>
<path fill-rule="evenodd" clip-rule="evenodd" d="M12.9905 17.1242C15.2057 17.1242 17.0014 15.3133 17.0014 13.0794C17.0014 10.8456 15.2057 9.03464 12.9905 9.03464C10.7754 9.03464 8.97971 10.8456 8.97971 13.0794C8.97971 15.3133 10.7754 17.1242 12.9905 17.1242Z" fill="#1F3042"/>
<path fill-rule="evenodd" clip-rule="evenodd" d="M9.95952 13.3129C9.14388 12.8459 8.68501 12.2813 8.16932 10.2955C7.50734 10.4027 5.65399 11.5957 5.00253 13.8245L5.96762 13.7948L8.99338 13.3575L9.95952 13.3129Z" fill="url(#paint4_linear_1_319)"/>
<path fill-rule="evenodd" clip-rule="evenodd" d="M13.1979 15.9907C12.7348 16.8132 12.1749 17.276 10.2058 17.796C10.3121 18.4626 11.495 20.3316 13.7051 20.9896L13.6757 20.0164L13.241 16.9639L13.1979 15.9907V15.9907Z" fill="url(#paint5_linear_1_319)"/>
<path fill-rule="evenodd" clip-rule="evenodd" d="M16.031 12.6899C16.8467 13.1569 17.3055 13.7215 17.8212 15.7073C18.4822 15.6001 20.3355 14.4072 20.988 12.1783L20.0229 12.2081L16.9961 12.6464L16.031 12.6899H16.031Z" fill="url(#paint6_linear_1_319)"/>
<path fill-rule="evenodd" clip-rule="evenodd" d="M12.7927 10.0132C13.2557 9.19065 13.8156 8.7279 15.7848 8.20784C15.6785 7.54132 14.4955 5.67229 12.2854 5.01425L12.3149 5.98751L12.7495 9.03994L12.7927 10.0132Z" fill="url(#paint7_linear_1_319)"/>
<defs>
<linearGradient id="paint0_linear_1_319" x1="16.3061" y1="7.68707" x2="3.78762" y2="15.5651" gradientUnits="userSpaceOnUse">
<stop stop-color="#314477"/>
<stop offset="1" stop-color="#228CC1"/>
</linearGradient>
<linearGradient id="paint1_linear_1_319" x1="19.0449" y1="16.6163" x2="10.2311" y2="2.8461" gradientUnits="userSpaceOnUse">
<stop stop-color="#314477"/>
<stop offset="1" stop-color="#228CC1"/>
</linearGradient>
<linearGradient id="paint2_linear_1_319" x1="10.1699" y1="17.5162" x2="21.7679" y2="10.2177" gradientUnits="userSpaceOnUse">
<stop stop-color="#314477"/>
<stop offset="1" stop-color="#228CC1"/>
</linearGradient>
<linearGradient id="paint3_linear_1_319" x1="8.64821" y1="9.99471" x2="15.976" y2="21.4445" gradientUnits="userSpaceOnUse">
<stop stop-color="#314477"/>
<stop offset="1" stop-color="#228CC1"/>
</linearGradient>
<linearGradient id="paint4_linear_1_319" x1="-6.54618" y1="10.8453" x2="-5.93942" y2="30.5634" gradientUnits="userSpaceOnUse">
<stop stop-color="#228CC1"/>
<stop offset="1" stop-color="#314477"/>
</linearGradient>
<linearGradient id="paint5_linear_1_319" x1="10.7513" y1="32.6356" x2="30.3045" y2="32.044" gradientUnits="userSpaceOnUse">
<stop stop-color="#228CC1"/>
<stop offset="1" stop-color="#314477"/>
</linearGradient>
<linearGradient id="paint6_linear_1_319" x1="32.5366" y1="15.157" x2="31.9299" y2="-4.56108" gradientUnits="userSpaceOnUse">
<stop stop-color="#228CC1"/>
<stop offset="1" stop-color="#314477"/>
</linearGradient>
<linearGradient id="paint7_linear_1_319" x1="15.235" y1="-6.63175" x2="-4.3183" y2="-6.04021" gradientUnits="userSpaceOnUse">
<stop stop-color="#228CC1"/>
<stop offset="1" stop-color="#314477"/>
</linearGradient>
</defs>
</svg>
