<svg width="26" height="26" viewBox="0 0 26 26" fill="none" xmlns="http://www.w3.org/2000/svg">
<path opacity="0.2" d="M13 26C20.1797 26 26 20.1797 26 13C26 5.8203 20.1797 0 13 0C5.8203 0 0 5.8203 0 13C0 20.1797 5.8203 26 13 26Z" fill="#3977FB"/>
<mask id="mask0_1_159" style="mask-type:luminance" maskUnits="userSpaceOnUse" x="0" y="0" width="26" height="26">
<path d="M13 26C20.1797 26 26 20.1797 26 13C26 5.8203 20.1797 0 13 0C5.8203 0 0 5.8203 0 13C0 20.1797 5.8203 26 13 26Z" fill="white"/>
</mask>
<g mask="url(#mask0_1_159)">
<path fill-rule="evenodd" clip-rule="evenodd" d="M12.0923 14.4222H15.9846C17.4308 14.4222 18.6154 13.2963 18.6154 11.8889C18.6154 10.4815 17.4462 9.37037 16 9.37037H14.7539L12.0923 7.14815H15.9846C18.7077 7.13333 20.9231 9.25185 20.9231 11.8741C20.9385 13.8148 19.7077 15.563 17.8308 16.2889L20.9077 18.8519H17.4L12.0923 14.4222Z" fill="url(#paint0_linear_1_159)"/>
<path fill-rule="evenodd" clip-rule="evenodd" d="M14 11.5926H10.1077C8.66155 11.5926 7.47694 12.7185 7.47694 14.1259C7.47694 15.5333 8.64617 16.6593 10.1077 16.6593H11.3539L14 18.8815H10.1077C7.38463 18.8815 5.16924 16.763 5.15386 14.1556C5.13848 12.2 6.36924 10.4519 8.24617 9.72594L5.16924 7.14816H8.69232L14 11.5926Z" fill="#4971FA"/>
<path fill-rule="evenodd" clip-rule="evenodd" d="M14 11.5926H10.1077C8.66155 11.5926 7.47694 12.7185 7.47694 14.1259C7.47694 15.5333 8.64617 16.6593 10.1077 16.6593H11.3539L14 18.8815H10.1077C7.38463 18.8815 5.16924 16.763 5.15386 14.1556C5.13848 12.2 6.36924 10.4519 8.24617 9.72594L5.16924 7.14816H8.69232L14 11.5926Z" fill="url(#paint1_linear_1_159)"/>
</g>
<defs>
<linearGradient id="paint0_linear_1_159" x1="12.0998" y1="18.8454" x2="20.9198" y2="18.8454" gradientUnits="userSpaceOnUse">
<stop stop-color="#62D0C9"/>
<stop offset="1" stop-color="#7DE2AC"/>
</linearGradient>
<linearGradient id="paint1_linear_1_159" x1="5.18143" y1="18.8567" x2="14.0014" y2="18.8567" gradientUnits="userSpaceOnUse">
<stop stop-color="#3268FB"/>
<stop offset="1" stop-color="#4795FA"/>
</linearGradient>
</defs>
</svg>
