<svg width="26" height="26" viewBox="0 0 26 26" fill="none" xmlns="http://www.w3.org/2000/svg">
<path opacity="0.3" d="M13 26C20.1797 26 26 20.1797 26 13C26 5.8203 20.1797 0 13 0C5.8203 0 0 5.8203 0 13C0 20.1797 5.8203 26 13 26Z" fill="#2EA7E0"/>
<path fill-rule="evenodd" clip-rule="evenodd" d="M12.8541 4H13.0606C13.3481 4.26448 13.6238 4.54776 13.827 4.8829C14.4308 5.85072 14.8326 6.95208 14.943 8.08779C15.0214 8.57462 15.0293 9.08025 14.9005 9.55929C14.7725 10.1524 14.417 10.6555 14.1047 11.1643C13.3135 12.2858 12.3693 13.3061 11.7297 14.5267C11.4389 15.127 11.2631 15.7811 11.2344 16.4468C11.3161 16.7839 11.3213 17.1353 11.4239 17.4685C11.5532 17.8639 11.6539 18.2729 11.8636 18.6366C12.0577 19.0651 12.3282 19.4547 12.5039 19.8916C12.4824 19.9188 12.4386 19.9726 12.4164 19.9998C11.6983 20.0089 11.0299 19.6621 10.4516 19.268C10.0537 19.021 9.75968 18.6528 9.42188 18.3377C8.73582 17.5709 8.25689 16.6212 8.0746 15.61C7.93934 14.8198 7.98769 13.9984 8.22226 13.2309C8.58555 11.9772 9.43952 10.9355 10.3798 10.0539C10.875 9.5016 11.3788 8.94671 11.761 8.30755C12.0465 7.79155 12.3164 7.26194 12.4889 6.69602C12.7215 5.81766 12.8796 4.91078 12.8541 4Z" fill="#1C2143"/>
<path fill-rule="evenodd" clip-rule="evenodd" d="M15.825 11.0772C15.8537 11.0577 15.911 11.0195 15.9402 11C16.3755 11.473 16.858 11.9117 17.1641 12.4967C17.264 12.7013 17.4206 12.8758 17.4785 13.1018C18.2097 14.6583 18.1747 16.5904 17.3563 18.1005C17.1291 18.5359 16.8147 18.9102 16.5028 19.2792C16.1566 19.5804 15.8314 19.9273 15.4158 20.1232C15.0314 20.3177 14.6521 20.58 14.465 21C14.2779 20.9564 14.1761 20.7759 14.0672 20.6283C13.5785 20.0413 13.1571 19.3423 13.042 18.5594C12.9694 18.3038 13.0178 18.0348 13.005 17.7724C12.9618 17.1022 13.2055 16.4663 13.4168 15.8477C13.5956 15.4975 13.735 15.1245 13.9393 14.7897C14.2448 14.2343 14.6247 13.7298 14.943 13.183C15.2058 12.7248 15.4203 12.2398 15.6437 11.7594C15.7226 11.538 15.8047 11.3153 15.825 11.0772Z" fill="#2EA7E0"/>
</svg>
