<svg width="26" height="26" viewBox="0 0 26 26" fill="none" xmlns="http://www.w3.org/2000/svg">
<path opacity="0.2" d="M13 26C20.1797 26 26 20.1797 26 13C26 5.8203 20.1797 0 13 0C5.8203 0 0 5.8203 0 13C0 20.1797 5.8203 26 13 26Z" fill="#FEDB31"/>
<mask id="mask0_1_822" style="mask-type:luminance" maskUnits="userSpaceOnUse" x="0" y="0" width="26" height="26">
<path d="M13 26C20.1797 26 26 20.1797 26 13C26 5.8203 20.1797 0 13 0C5.8203 0 0 5.8203 0 13C0 20.1797 5.8203 26 13 26Z" fill="white"/>
</mask>
<g mask="url(#mask0_1_822)">
<path fill-rule="evenodd" clip-rule="evenodd" d="M16.8184 8.3331L17.6669 9.18163L14.2728 12.5757L13.4243 11.7272L16.8184 8.3331ZM11.7272 13.4243L12.5757 14.2728L9.18162 17.6669L8.3331 16.8184L11.7272 13.4243ZM11.7272 12.5757L12.5757 11.7272L9.18162 8.3331L8.3331 9.18163L11.7272 12.5757ZM17.6669 16.8184L16.8184 17.6669L13.4243 14.2728L14.2728 13.4243L17.6669 16.8184ZM13 13.8485L13.8485 13L13 12.1515L12.1515 13L13 13.8485Z" fill="#FEDB31"/>
</g>
</svg>
