<svg width="26" height="26" viewBox="0 0 26 26" fill="none" xmlns="http://www.w3.org/2000/svg">
<path opacity="0.2" d="M13 26C20.1797 26 26 20.1797 26 13C26 5.8203 20.1797 0 13 0C5.8203 0 0 5.8203 0 13C0 20.1797 5.8203 26 13 26Z" fill="#45525B"/>
<path fill-rule="evenodd" clip-rule="evenodd" d="M5.43781 6.58524C5.22814 6.57821 4.99876 6.57052 4.83926 6.72491C4.63711 6.88806 4.58706 7.16301 4.59616 7.40871C4.59951 8.70829 4.60002 10.0079 4.60054 11.3074C4.60153 13.8011 4.60253 16.2946 4.62346 18.7876C4.59746 19.2244 5.07586 19.4864 5.46391 19.4214C5.82767 19.4307 6.03564 19.1232 6.21909 18.8519C6.24019 18.8207 6.26096 18.79 6.28161 18.7603C7.5438 17.1478 8.81184 15.5398 10.0799 13.9319L10.0802 13.9315C10.1797 14.04 10.2791 14.1499 10.3688 14.2675C10.7692 14.7875 11.1744 15.3035 11.5797 15.8195L11.5798 15.8196C11.8219 16.1279 12.0641 16.4361 12.3052 16.7453C12.6133 17.2016 13.379 17.1971 13.6936 16.7492C13.9791 16.3795 14.2668 16.0112 14.5545 15.6428L14.5545 15.6428L14.5546 15.6427L14.5547 15.6426C14.9225 15.1717 15.2904 14.7006 15.654 14.2266C15.7281 14.1213 15.8223 14.0342 15.9211 13.9529C16.4635 14.6458 17.009 15.3364 17.5546 16.027L17.5546 16.027L17.5546 16.027C18.2854 16.952 19.0161 17.877 19.7392 18.8078C19.7685 18.8471 19.7971 18.8881 19.8259 18.9294C19.9569 19.1172 20.0923 19.3114 20.3177 19.3876C20.6356 19.4656 21.0256 19.4402 21.2492 19.1705C21.388 19.0024 21.3836 18.785 21.3793 18.575C21.378 18.5137 21.3768 18.453 21.3792 18.3944C21.3889 17.8315 21.3974 17.2686 21.3935 16.705C21.3935 15.2362 21.3958 13.7675 21.3981 12.2989V12.2989V12.2988C21.4007 10.6465 21.4033 8.99423 21.4026 7.34176C21.4032 7.11881 21.348 6.86401 21.1497 6.73271C20.9157 6.53901 20.5901 6.56761 20.3093 6.60726C20.0984 6.68422 19.9626 6.86647 19.8317 7.04211L19.8317 7.04216L19.8317 7.0422C19.8056 7.07718 19.7797 7.11189 19.7535 7.14546C19.2696 7.76031 18.7879 8.37688 18.3063 8.99341L18.3061 8.99365C17.6762 9.79985 17.0465 10.606 16.4119 11.4082C16.3632 11.4681 16.3163 11.5297 16.2693 11.5913C16.1461 11.7529 16.0228 11.9146 15.8685 12.0478C15.6045 11.7145 15.3446 11.3779 15.0848 11.0412L15.0848 11.0412C14.774 10.6385 14.4632 10.2359 14.1453 9.83906C14.088 9.76688 14.0329 9.69259 13.9778 9.61826L13.9778 9.61825C13.8303 9.41947 13.6827 9.22044 13.4921 9.06101C13.275 8.88161 12.9669 8.91151 12.7075 8.95181C12.4267 9.05753 12.2514 9.29997 12.0789 9.53857C12.0139 9.62858 11.9492 9.71804 11.8794 9.79941C11.6283 10.1068 11.3874 10.4227 11.1466 10.7385L11.1465 10.7385C10.8033 11.1885 10.4602 11.6385 10.0874 12.064C9.77934 11.6719 9.47091 11.2801 9.16249 10.8883L9.16248 10.8883L9.16247 10.8883C8.10741 9.54802 7.05244 8.20789 6.01381 6.85491C5.89096 6.71256 5.72651 6.57931 5.52761 6.58776C5.49828 6.58726 5.46825 6.58626 5.43781 6.58524ZM6.15096 16.7076C6.15291 14.2584 6.15421 11.8092 6.15226 9.36001C6.15334 9.33915 6.15356 9.31767 6.15378 9.29596C6.15475 9.2 6.15576 9.09966 6.23156 9.02916C6.41725 9.2131 6.57487 9.42071 6.73247 9.62829L6.73247 9.62829L6.73248 9.6283C6.80989 9.73027 6.88729 9.83222 6.96801 9.93136C7.4058 10.484 7.84035 11.0395 8.27483 11.5949L8.27486 11.595C8.61964 12.0357 8.96436 12.4764 9.31062 12.9155C9.38452 13.0266 9.29905 13.1248 9.22066 13.2148C9.19356 13.246 9.1673 13.2761 9.14877 13.3055C8.8622 13.6729 8.57519 14.0399 8.2882 14.407L8.28785 14.4074L8.28781 14.4075C7.80417 15.0259 7.32059 15.6444 6.83931 16.2643C6.79992 16.3145 6.76081 16.3649 6.72168 16.4153C6.56263 16.6204 6.40348 16.8256 6.22506 17.0144C6.17436 16.9195 6.14316 16.8155 6.15096 16.7076ZM17.0007 12.516L17.0007 12.5161L16.6888 12.9142C16.6096 13.0124 16.6877 13.1102 16.754 13.1933C16.7666 13.2092 16.7789 13.2245 16.7895 13.2392C17.0088 13.4962 17.2134 13.7649 17.4179 14.0335C17.5688 14.2316 17.7196 14.4297 17.8763 14.6231C18.1429 14.9513 18.4011 15.2865 18.6593 15.6216L18.6593 15.6216C19.0217 16.092 19.3841 16.5624 19.7698 17.0138C19.8263 16.9429 19.853 16.8623 19.8497 16.772C19.8453 14.6817 19.846 12.5914 19.8468 10.5008V10.5006L19.8471 9.35936C19.8497 9.24301 19.8432 9.12471 19.7711 9.02721C19.5437 9.25673 19.3492 9.51388 19.1547 9.77104L19.1547 9.77108C19.0584 9.89842 18.962 10.0258 18.8617 10.1498C18.2385 10.9361 17.6195 11.7262 17.0007 12.516ZM12.4047 10.9682C12.5258 10.8087 12.647 10.6491 12.7985 10.5183C13.0208 10.3929 13.2613 10.5365 13.3881 10.727C13.7052 11.1405 14.0292 11.5492 14.3532 11.9579C14.5949 12.2628 14.8366 12.5677 15.0755 12.8746C15.1918 12.9887 15.0874 13.1107 15.0017 13.2107C14.9854 13.2298 14.9698 13.248 14.9565 13.2652C14.4307 13.9321 13.9061 14.601 13.3848 15.2711C13.372 15.2858 13.3591 15.3011 13.3459 15.3167C13.2555 15.4244 13.1551 15.5437 13.0007 15.5233C12.807 15.548 12.6796 15.3855 12.5749 15.2503C12.3071 14.8984 12.0335 14.551 11.7598 14.2036C11.4451 13.8041 11.1304 13.4045 10.8245 12.9981C11.0788 12.6442 11.3513 12.3038 11.624 11.9632C11.8286 11.7076 12.0334 11.4519 12.2304 11.1904C12.2906 11.1184 12.3476 11.0433 12.4047 10.9682Z" fill="#FCFDFD"/>
<path opacity="0.2" fill-rule="evenodd" clip-rule="evenodd" d="M13.6097 0H12.3286C12.1516 0.0226885 11.9744 0.0423466 11.7971 0.0620059C11.5478 0.0896567 11.2985 0.11731 11.05 0.1534C9.42695 0.38805 7.86695 0.96655 6.44215 1.7706C5.2533 2.46155 4.2029 3.36505 3.26755 4.36865C2.26655 5.5341 1.43455 6.85165 0.88205 8.2888C0.35165 9.63495 0.0728 11.0728 0 12.5164V13.6747C0.11635 15.4135 0.53235 17.1398 1.30975 18.7044C2.38615 20.9332 4.12815 22.8293 6.23805 24.1189C8.1055 25.257 10.2641 25.9135 12.4501 26H13.5506C15.9244 25.9051 18.2682 25.1413 20.2384 23.8127C23.0847 21.9121 25.1401 18.8507 25.7654 15.4804C25.796 15.3301 25.8184 15.178 25.8407 15.0261C25.8794 14.7629 25.918 14.4999 26 14.246V12.2629C25.987 12.1531 25.9747 12.0431 25.9624 11.9332C25.9328 11.6683 25.9032 11.4033 25.8641 11.1397C25.5593 8.96415 24.6786 6.8705 23.3402 5.12915C21.5846 2.76965 18.9696 1.0868 16.1187 0.38675C15.2978 0.17355 14.4528 0.0806 13.6097 0ZM4.59615 7.4087C4.58705 7.163 4.6371 6.88805 4.83925 6.7249C4.99874 6.57051 5.22812 6.5782 5.4378 6.58523C5.46824 6.58625 5.49826 6.58726 5.5276 6.58775C5.7265 6.5793 5.89095 6.71255 6.0138 6.8549C7.05243 8.20789 8.10741 9.54804 9.16248 10.8883C9.4709 11.2801 9.77932 11.6719 10.0874 12.064C10.4601 11.6385 10.8033 11.1885 11.1465 10.7385C11.3874 10.4227 11.6283 10.1068 11.8794 9.7994C11.9492 9.71803 12.0139 9.62857 12.0789 9.53857C12.2514 9.29997 12.4267 9.05752 12.7075 8.9518C12.9669 8.9115 13.275 8.8816 13.4921 9.061C13.6827 9.22043 13.8303 9.41947 13.9778 9.61825C14.0329 9.69258 14.088 9.76687 14.1453 9.83905C14.4632 10.2359 14.774 10.6385 15.0847 11.0412C15.3446 11.3778 15.6044 11.7145 15.8685 12.0478C16.0228 11.9146 16.1461 11.7529 16.2692 11.5913C16.3162 11.5297 16.3632 11.4681 16.4118 11.4081C17.0465 10.6059 17.6764 9.79962 18.3063 8.9933C18.788 8.37681 19.2696 7.76027 19.7535 7.14545C19.7798 7.11185 19.8056 7.07711 19.8317 7.0421C19.9626 6.86646 20.0984 6.68421 20.3092 6.60725C20.59 6.5676 20.9157 6.539 21.1497 6.7327C21.3479 6.864 21.4032 7.1188 21.4025 7.34175C21.4032 8.99424 21.4006 10.6466 21.3981 12.2989C21.3958 13.7675 21.3934 15.2362 21.3934 16.705C21.3974 17.2686 21.3889 17.8314 21.3792 18.3944C21.3768 18.453 21.378 18.5137 21.3793 18.575C21.3836 18.785 21.388 19.0024 21.2491 19.1705C21.0255 19.4402 20.6355 19.4655 20.3177 19.3876C20.0923 19.3114 19.9569 19.1172 19.8259 18.9294C19.7971 18.8881 19.7685 18.8471 19.7392 18.8078C19.0161 17.877 18.2853 16.952 17.5546 16.027C17.009 15.3364 16.4635 14.6458 15.9211 13.9529C15.8223 14.0342 15.7281 14.1213 15.6539 14.2266C15.2903 14.7007 14.9224 15.1717 14.5546 15.6427C14.2668 16.0111 13.9791 16.3795 13.6936 16.7492C13.379 17.1971 12.6132 17.2016 12.3052 16.7453C12.064 16.4361 11.8219 16.1279 11.5798 15.8196C11.1745 15.3036 10.7692 14.7876 10.3688 14.2675C10.2791 14.1498 10.1797 14.04 10.0802 13.9314C8.81205 15.5395 7.5439 17.1476 6.2816 18.7603C6.26095 18.79 6.24017 18.8207 6.21907 18.8519C6.03562 19.1232 5.82766 19.4307 5.4639 19.4214C5.07585 19.4863 4.59745 19.2244 4.62345 18.7876C4.60251 16.2946 4.60152 13.8011 4.60053 11.3074C4.60001 10.0079 4.59949 8.70829 4.59615 7.4087Z" fill="#2573B2"/>
<path opacity="0.2" fill-rule="evenodd" clip-rule="evenodd" d="M6.15224 9.35999C6.15809 9.24689 6.13859 9.11559 6.23154 9.02914C6.50844 9.30344 6.72294 9.63039 6.96799 9.93134C7.75319 10.9226 8.52799 11.9229 9.31059 12.9155C9.41004 13.065 9.22089 13.1911 9.14874 13.3055C8.37914 14.2922 7.60629 15.2763 6.83929 16.2643C6.63974 16.5184 6.44734 16.7791 6.22504 17.0144C6.17434 16.9195 6.14314 16.8155 6.15094 16.7076C6.15289 14.2584 6.15419 11.8092 6.15224 9.35999Z" fill="#2573B2"/>
<path opacity="0.2" fill-rule="evenodd" clip-rule="evenodd" d="M18.8617 10.1498C19.1646 9.77536 19.4311 9.37041 19.771 9.02721C19.8432 9.12471 19.8497 9.24301 19.8471 9.35936C19.8464 11.8307 19.8445 14.3013 19.8497 16.772C19.8529 16.8623 19.8263 16.9429 19.7697 17.0138C19.1093 16.2409 18.5172 15.4122 17.8763 14.6231C17.5071 14.1674 17.1704 13.6858 16.7895 13.2392C16.7232 13.1476 16.5945 13.0312 16.6887 12.9142C17.4115 11.9919 18.1337 11.0682 18.8617 10.1498Z" fill="#2573B2"/>
<path opacity="0.2" fill-rule="evenodd" clip-rule="evenodd" d="M12.7985 10.5183C13.0208 10.3929 13.2613 10.5365 13.3881 10.727C13.9419 11.4491 14.5165 12.1563 15.0755 12.8746C15.2139 13.0104 15.0397 13.1573 14.9565 13.2652C14.4307 13.9321 13.9061 14.601 13.3848 15.2711C13.2834 15.3868 13.1775 15.5467 13.0007 15.5233C12.807 15.548 12.6796 15.3855 12.5749 15.2503C11.999 14.4937 11.3965 13.7579 10.8245 12.9981C11.2697 12.3786 11.7709 11.8001 12.2304 11.1904C12.4183 10.9655 12.5756 10.7107 12.7985 10.5183Z" fill="#2573B2"/>
</svg>
