<svg width="26" height="26" viewBox="0 0 26 26" fill="none" xmlns="http://www.w3.org/2000/svg">
<path opacity="0.1" d="M13 26C20.1797 26 26 20.1797 26 13C26 5.8203 20.1797 0 13 0C5.8203 0 0 5.8203 0 13C0 20.1797 5.8203 26 13 26Z" fill="#662D91"/>
<mask id="mask0_1_839" style="mask-type:luminance" maskUnits="userSpaceOnUse" x="0" y="0" width="26" height="26">
<path d="M13 26C20.1797 26 26 20.1797 26 13C26 5.8203 20.1797 0 13 0C5.8203 0 0 5.8203 0 13C0 20.1797 5.8203 26 13 26Z" fill="white"/>
</mask>
<g mask="url(#mask0_1_839)">
<path fill-rule="evenodd" clip-rule="evenodd" d="M10.9378 19.1893H14.7865L17.8487 16.8954L17.892 16.8509L19.0731 13.0738L17.892 9.29677L14.7865 6.95834H10.9353L7.8298 9.29677L6.64871 13.0738L7.83235 16.8509L10.9378 19.1893ZM14.7 18.9173H11.0243L8.05126 16.6704L6.91344 13.0738L8.05126 9.47726L11.0243 7.23038H14.7L17.6756 9.47726L18.8134 13.0738L17.6756 16.6704L14.7 18.9173Z" fill="#2E9AD0"/>
<path fill-rule="evenodd" clip-rule="evenodd" d="M19.5134 18.559L17.7189 16.8954L15.9676 16.2205L12.8622 16.626L9.71343 16.2205L7.96216 16.8954L7.87561 16.626L9.66761 15.9066H9.71343L12.8622 16.3565L16.0134 15.9066L16.0567 15.9511L17.8945 16.6704L19.6865 18.3785L19.5134 18.559Z" fill="#2E9AD0"/>
<path fill-rule="evenodd" clip-rule="evenodd" d="M14.7 19.3227L12.8622 16.7149L10.9378 19.3227L9.53781 16.1316L9.79999 15.9956L11.0244 18.7839L12.8622 16.2205L14.6567 18.7839L15.8811 15.9956L17.5433 12.5795L17.9378 16.7593H17.6756L17.3676 13.5682L16.1433 16.1316L14.7 19.3227Z" fill="#2E9AD0"/>
<path fill-rule="evenodd" clip-rule="evenodd" d="M6.82434 12.9378H18.9865V13.2073H6.82434V12.9378Z" fill="#2E9AD0"/>
<path fill-rule="evenodd" clip-rule="evenodd" d="M17.5433 13.5682L16.0134 10.466L14.7 13.3877L12.8622 10.0161L10.9811 13.3877L9.66762 10.466L8.1378 13.5682L7.78653 9.4328L8.05126 9.38834L8.31344 12.6239L9.66762 9.8827L10.9811 12.8044L12.8622 9.47727L14.6567 12.8044L16.0134 9.8827L17.3676 12.5795L17.5865 9.38834H17.8513L17.5433 13.5682Z" fill="#2E9AD0"/>
<path fill-rule="evenodd" clip-rule="evenodd" d="M14.6567 7.40825L15.8811 10.241L16.1433 10.1076L14.7 6.86942L12.8622 9.52173L10.9378 6.86942L9.58107 10.1076L9.79998 10.241L11.0243 7.40825L12.8622 10.0161L14.6567 7.40825ZM17.3676 13.5682L17.6756 16.7594H17.9378L17.5433 12.5795L16.0134 15.7706L14.7 12.8044L12.8622 16.1761L10.9811 12.8044L9.66762 15.7262L8.1378 12.5795L7.78653 16.7594H8.05126L8.31344 13.5682L9.66762 16.3565L10.9811 13.3877L12.8622 16.7594L14.6567 13.3877L16.0134 16.3565L17.3676 13.5682Z" fill="#2E9AD0"/>
<path fill-rule="evenodd" clip-rule="evenodd" d="M16.0134 10.3326L12.8189 9.8827L9.66761 10.3326L7.87561 9.52174L7.96216 9.25232L9.71343 10.0161L12.8189 9.61329L16.0134 10.0161L17.7189 9.25232L17.8512 9.52174L16.0134 10.3326Z" fill="#2E9AD0"/>
<path fill-rule="evenodd" clip-rule="evenodd" d="M10.9811 19.5922C11.2707 19.5922 11.5055 19.3509 11.5055 19.0533C11.5055 18.7557 11.2707 18.5145 10.9811 18.5145C10.6915 18.5145 10.4567 18.7557 10.4567 19.0533C10.4567 19.3509 10.6915 19.5922 10.9811 19.5922Z" fill="#2E9AD0"/>
<path fill-rule="evenodd" clip-rule="evenodd" d="M14.6567 19.5922C14.9463 19.5922 15.1811 19.3509 15.1811 19.0533C15.1811 18.7557 14.9463 18.5145 14.6567 18.5145C14.3671 18.5145 14.1324 18.7557 14.1324 19.0533C14.1324 19.3509 14.3671 19.5922 14.6567 19.5922Z" fill="#2E9AD0"/>
<path fill-rule="evenodd" clip-rule="evenodd" d="M10.9811 7.67767C11.2707 7.67767 11.5055 7.43643 11.5055 7.13884C11.5055 6.84125 11.2707 6.60001 10.9811 6.60001C10.6915 6.60001 10.4567 6.84125 10.4567 7.13884C10.4567 7.43643 10.6915 7.67767 10.9811 7.67767Z" fill="#2E9AD0"/>
<path fill-rule="evenodd" clip-rule="evenodd" d="M14.6567 7.67767C14.9463 7.67767 15.1811 7.43643 15.1811 7.13884C15.1811 6.84125 14.9463 6.60001 14.6567 6.60001C14.3671 6.60001 14.1324 6.84125 14.1324 7.13884C14.1324 7.43643 14.3671 7.67767 14.6567 7.67767Z" fill="#2E9AD0"/>
<path fill-rule="evenodd" clip-rule="evenodd" d="M17.7189 9.92718C18.0085 9.92718 18.2432 9.68594 18.2432 9.38835C18.2432 9.09076 18.0085 8.84952 17.7189 8.84952C17.4293 8.84952 17.1945 9.09076 17.1945 9.38835C17.1945 9.68594 17.4293 9.92718 17.7189 9.92718Z" fill="#2E9AD0"/>
<path fill-rule="evenodd" clip-rule="evenodd" d="M7.91889 9.92718C8.20849 9.92718 8.44326 9.68594 8.44326 9.38835C8.44326 9.09076 8.20849 8.84952 7.91889 8.84952C7.6293 8.84952 7.39453 9.09076 7.39453 9.38835C7.39453 9.68594 7.6293 9.92718 7.91889 9.92718Z" fill="#2E9AD0"/>
<path fill-rule="evenodd" clip-rule="evenodd" d="M7.91889 17.3453C8.20849 17.3453 8.44326 17.104 8.44326 16.8064C8.44326 16.5089 8.20849 16.2676 7.91889 16.2676C7.6293 16.2676 7.39453 16.5089 7.39453 16.8064C7.39453 17.104 7.6293 17.3453 7.91889 17.3453Z" fill="#2E9AD0"/>
<path fill-rule="evenodd" clip-rule="evenodd" d="M6.82435 13.6127C7.11395 13.6127 7.34872 13.3714 7.34872 13.0738C7.34872 12.7762 7.11395 12.535 6.82435 12.535C6.53475 12.535 6.29999 12.7762 6.29999 13.0738C6.29999 13.3714 6.53475 13.6127 6.82435 13.6127Z" fill="#2E9AD0"/>
<path fill-rule="evenodd" clip-rule="evenodd" d="M18.9432 13.6127C19.2328 13.6127 19.4676 13.3714 19.4676 13.0738C19.4676 12.7762 19.2328 12.535 18.9432 12.535C18.6536 12.535 18.4189 12.7762 18.4189 13.0738C18.4189 13.3714 18.6536 13.6127 18.9432 13.6127Z" fill="#2E9AD0"/>
<path fill-rule="evenodd" clip-rule="evenodd" d="M17.4567 13.6127C17.7463 13.6127 17.9811 13.3714 17.9811 13.0738C17.9811 12.7762 17.7463 12.535 17.4567 12.535C17.1671 12.535 16.9323 12.7762 16.9323 13.0738C16.9323 13.3714 17.1671 13.6127 17.4567 13.6127Z" fill="#2E9AD0"/>
<path fill-rule="evenodd" clip-rule="evenodd" d="M8.22435 13.6127C8.51394 13.6127 8.74871 13.3714 8.74871 13.0738C8.74871 12.7762 8.51394 12.535 8.22435 12.535C7.93475 12.535 7.69998 12.7762 7.69998 13.0738C7.69998 13.3714 7.93475 13.6127 8.22435 13.6127Z" fill="#2E9AD0"/>
<path fill-rule="evenodd" clip-rule="evenodd" d="M10.9811 13.6127C11.2707 13.6127 11.5055 13.3714 11.5055 13.0738C11.5055 12.7762 11.2707 12.535 10.9811 12.535C10.6915 12.535 10.4567 12.7762 10.4567 13.0738C10.4567 13.3714 10.6915 13.6127 10.9811 13.6127Z" fill="#2E9AD0"/>
<path fill-rule="evenodd" clip-rule="evenodd" d="M14.6567 13.6127C14.9463 13.6127 15.1811 13.3714 15.1811 13.0738C15.1811 12.7762 14.9463 12.535 14.6567 12.535C14.3671 12.535 14.1324 12.7762 14.1324 13.0738C14.1324 13.3714 14.3671 13.6127 14.6567 13.6127Z" fill="#2E9AD0"/>
<path fill-rule="evenodd" clip-rule="evenodd" d="M13.3799 9.83358C13.4263 9.53984 13.2322 9.26306 12.9463 9.21539C12.6604 9.16771 12.3911 9.36719 12.3447 9.66093C12.2983 9.95468 12.4924 10.2315 12.7783 10.2791C13.0641 10.3268 13.3335 10.1273 13.3799 9.83358Z" fill="#2E9AD0"/>
<path fill-rule="evenodd" clip-rule="evenodd" d="M9.66761 10.7354C9.95721 10.7354 10.192 10.4942 10.192 10.1966C10.192 9.89899 9.95721 9.65775 9.66761 9.65775C9.37802 9.65775 9.14325 9.89899 9.14325 10.1966C9.14325 10.4942 9.37802 10.7354 9.66761 10.7354Z" fill="#2E9AD0"/>
<path fill-rule="evenodd" clip-rule="evenodd" d="M16.0134 10.7354C16.303 10.7354 16.5378 10.4942 16.5378 10.1966C16.5378 9.89899 16.303 9.65775 16.0134 9.65775C15.7238 9.65775 15.4891 9.89899 15.4891 10.1966C15.4891 10.4942 15.7238 10.7354 16.0134 10.7354Z" fill="#2E9AD0"/>
<path fill-rule="evenodd" clip-rule="evenodd" d="M12.8622 17.0288C13.1518 17.0288 13.3865 16.7875 13.3865 16.4899C13.3865 16.1924 13.1518 15.9511 12.8622 15.9511C12.5726 15.9511 12.3378 16.1924 12.3378 16.4899C12.3378 16.7875 12.5726 17.0288 12.8622 17.0288Z" fill="#2E9AD0"/>
<path fill-rule="evenodd" clip-rule="evenodd" d="M9.66761 16.5789C9.95721 16.5789 10.192 16.3376 10.192 16.0401C10.192 15.7425 9.95721 15.5012 9.66761 15.5012C9.37802 15.5012 9.14325 15.7425 9.14325 16.0401C9.14325 16.3376 9.37802 16.5789 9.66761 16.5789Z" fill="#2E9AD0"/>
<path fill-rule="evenodd" clip-rule="evenodd" d="M16.0134 16.5789C16.303 16.5789 16.5378 16.3376 16.5378 16.0401C16.5378 15.7425 16.303 15.5012 16.0134 15.5012C15.7238 15.5012 15.4891 15.7425 15.4891 16.0401C15.4891 16.3376 15.7238 16.5789 16.0134 16.5789Z" fill="#2E9AD0"/>
<path fill-rule="evenodd" clip-rule="evenodd" d="M19.6 19.1893C19.9866 19.1893 20.3 18.8673 20.3 18.47C20.3 18.0728 19.9866 17.7507 19.6 17.7507C19.2134 17.7507 18.9 18.0728 18.9 18.47C18.9 18.8673 19.2134 19.1893 19.6 19.1893Z" fill="#2E9AD0"/>
</g>
</svg>
