<svg width="26" height="26" viewBox="0 0 26 26" fill="none" xmlns="http://www.w3.org/2000/svg">
<path opacity="0.2" d="M13 26C20.1797 26 26 20.1797 26 13C26 5.8203 20.1797 0 13 0C5.8203 0 0 5.8203 0 13C0 20.1797 5.8203 26 13 26Z" fill="#00CBA0"/>
<path fill-rule="evenodd" clip-rule="evenodd" d="M12.861 10.8171C14.1704 10.2005 15.7276 10.2806 16.9704 11.0616C17.2425 11.2322 17.4946 11.4328 17.7219 11.6596C18.4617 12.3989 18.8735 13.2794 18.9592 14.2473C18.9598 14.2538 18.9616 14.2676 18.9641 14.2868C18.9751 14.3724 19 14.5662 19 14.7084V18.2065C19 18.4026 18.8846 18.6229 18.7459 18.7613C18.6072 18.8997 18.406 18.9966 18.2103 18.9966C18.2103 18.9966 14.5988 19.0089 14.3454 18.9868C13.3777 18.9008 12.3968 18.4632 11.6573 17.7241C11.4307 17.4967 11.2305 17.2446 11.0603 16.9724C10.2792 15.7295 10.1994 14.1714 10.8163 12.8619L10.8142 12.8597C11.1361 12.1478 11.0076 11.313 10.4865 10.7308C10.4787 10.7221 10.4714 10.7131 10.4641 10.7041C10.4521 10.6895 10.4402 10.6749 10.4268 10.6617L7.7775 8.01165C7.77748 8.01163 7.77742 8.01154 7.77734 8.01142C7.77695 8.01084 7.77598 8.00941 7.77526 8.00941C7.57775 7.83281 7.31892 7.76416 7.07141 7.79202L7.07054 7.79015C6.6813 7.86364 6.28961 7.67489 6.10458 7.32467C5.91956 6.97445 5.98441 6.54455 6.2645 6.26448C6.5446 5.98441 6.97454 5.91957 7.32479 6.10457C7.67504 6.28958 7.86381 6.68124 7.79031 7.07044C7.79105 7.07058 7.79177 7.07083 7.79243 7.07119C7.76323 7.32512 7.84408 7.57942 8.01457 7.76988C8.01501 7.77088 8.01581 7.77168 8.01681 7.77212L10.6536 10.4096C10.6794 10.4353 10.7059 10.4601 10.7332 10.4842C11.3139 11.0053 12.1475 11.1346 12.8588 10.8141L12.861 10.8171ZM17.3082 14.7419C17.3082 14.7085 17.3034 14.4892 17.2019 13.9905H17.2024C17.116 13.5679 16.8586 13.1831 16.5325 12.857C15.5205 11.8451 13.8672 11.8461 12.8552 12.8577C11.8433 13.8693 11.843 15.5189 12.8552 16.5308C13.169 16.8472 13.5596 17.0766 13.9888 17.1966C14.3601 17.299 14.7639 17.3038 14.7973 17.3038H16.5184C16.7143 17.3038 16.9438 17.2165 17.0825 17.0781C17.2211 16.9397 17.3082 16.71 17.3082 16.5139V14.7419Z" fill="#00CBA0"/>
</svg>
