<svg width="26" height="26" viewBox="0 0 26 26" fill="none" xmlns="http://www.w3.org/2000/svg">
<path opacity="0.2" fill-rule="evenodd" clip-rule="evenodd" d="M13 26C20.1797 26 26 20.1797 26 13C26 5.8203 20.1797 0 13 0C5.8203 0 0 5.8203 0 13C0 20.1797 5.8203 26 13 26Z" fill="#165098"/>
<path fill-rule="evenodd" clip-rule="evenodd" d="M6.12582 8.97211C6.41571 8.09837 7.1287 7.38202 7.81949 6.80077C7.97492 6.68799 8.08594 6.73385 8.0625 6.86646C8.0514 6.98977 8.0292 7.1072 8.00699 7.22463C7.98479 7.34206 7.96258 7.45948 7.95148 7.5828C7.90707 7.91866 7.90707 8.23222 7.92928 8.56808C7.95148 8.99318 8.04153 9.39597 8.19696 9.77645C8.35239 10.1346 8.53125 10.4928 8.70888 10.8287C9.15543 11.7693 9.60074 12.7087 10.0238 13.6494C10.0711 13.7602 10.1184 13.8697 10.1654 13.9785C10.3182 14.3321 10.4678 14.6783 10.6036 15.0375C10.7813 15.5295 10.8701 16.0005 10.7146 16.5148C10.4026 17.5447 9.55633 18.3056 8.77673 18.9774C8.75667 18.9942 8.73106 19.0176 8.70231 19.0438C8.54009 19.1919 8.27817 19.4311 8.35362 19.0889C8.40338 18.8179 8.47123 18.5515 8.53895 18.2857C8.62233 17.9584 8.70551 17.6318 8.75452 17.2981C8.85273 16.5449 8.49825 15.7578 8.18372 15.0594C8.14268 14.9683 8.10232 14.8787 8.06373 14.7909C7.80295 14.1981 7.51687 13.6218 7.23147 13.0469C7.05382 12.6891 6.87644 12.3317 6.70559 11.9713C6.25905 11.0542 5.79153 10.002 6.12582 8.97211ZM16.3285 8.97211C16.6184 8.09961 17.3314 7.38326 18.0222 6.80077C18.1789 6.68799 18.2899 6.73385 18.2664 6.86769C18.2553 6.99101 18.2331 7.10844 18.2109 7.22586C18.1887 7.34329 18.1665 7.46072 18.1554 7.58404C18.111 7.9199 18.111 8.23346 18.1332 8.56932C18.1554 8.99442 18.2455 9.39721 18.4009 9.77769C18.5563 10.1359 18.7352 10.494 18.9128 10.8299C19.3594 11.7706 19.8047 12.71 20.2278 13.6507C20.2751 13.7614 20.3224 13.8709 20.3694 13.9797C20.5222 14.3333 20.6717 14.6795 20.8076 15.0387C20.9852 15.5307 21.074 16.0017 20.9186 16.516C20.6065 17.5459 19.7603 18.3069 18.9807 18.9786C18.9606 18.9954 18.935 19.0188 18.9063 19.045C18.744 19.1932 18.4821 19.4323 18.5576 19.0902C18.6073 18.8191 18.6752 18.5528 18.7429 18.2869C18.8263 17.9596 18.9095 17.633 18.9585 17.2993C19.0567 16.5461 18.7022 15.759 18.3877 15.0607C18.3466 14.9695 18.3063 14.8799 18.2677 14.7921C18.0085 14.2023 17.7239 13.6297 17.44 13.0583C17.2603 12.6968 17.0809 12.3359 16.9083 11.9713C16.4618 11.0542 15.9942 10.002 16.3285 8.97211Z" fill="#165098"/>
<path fill-rule="evenodd" clip-rule="evenodd" d="M12.7648 5.09914C11.9852 5.74856 11.139 6.53183 10.6702 7.44895C10.3359 8.09837 10.2915 8.7701 10.4692 9.44058C10.6924 10.2462 11.0033 11.0517 11.3376 11.835C11.984 13.3346 12.8302 14.745 13.4544 16.2669C13.6776 16.8036 13.9219 17.4084 13.9663 18.0132C14.0107 18.7518 13.7652 19.5351 13.5654 20.2291C13.521 20.4311 13.3878 20.6988 13.41 20.9008C13.4322 21.057 13.521 20.9901 13.611 20.9232C13.9897 20.6319 14.3684 20.296 14.7027 19.9602C15.6156 19.0877 16.6628 17.9227 16.574 16.5582C16.5296 15.998 16.2619 15.4613 16.0399 14.947C15.7944 14.3435 15.528 13.7622 15.2603 13.1797C14.7706 12.0829 14.2574 11.0084 13.7233 9.93385C13.5456 9.55337 13.3224 9.19519 13.1892 8.81471C12.9881 8.30038 12.8993 7.76251 12.8771 7.22587C12.8549 6.82308 12.8771 6.39798 12.9215 5.99519C12.9437 5.72625 13.0325 5.48086 13.0325 5.21192C13.0991 4.96529 12.9659 4.94299 12.7648 5.09914Z" fill="#5C9DD5"/>
</svg>
