<svg width="26" height="26" viewBox="0 0 26 26" fill="none" xmlns="http://www.w3.org/2000/svg">
<path opacity="0.2" d="M13 26C20.1797 26 26 20.1797 26 13C26 5.8203 20.1797 0 13 0C5.8203 0 0 5.8203 0 13C0 20.1797 5.8203 26 13 26Z" fill="#8672C1"/>
<mask id="mask0_1_134" style="mask-type:luminance" maskUnits="userSpaceOnUse" x="0" y="0" width="26" height="26">
<path d="M13 26C20.1797 26 26 20.1797 26 13C26 5.8203 20.1797 0 13 0C5.8203 0 0 5.8203 0 13C0 20.1797 5.8203 26 13 26Z" fill="white"/>
</mask>
<g mask="url(#mask0_1_134)">
<path fill-rule="evenodd" clip-rule="evenodd" d="M12.6888 19.5851L12.2003 18.6237L7.1183 8.51893C7.1183 8.51893 7.00398 8.18142 7.23262 8.13028C7.9809 8.10983 8.66681 8.10983 9.35273 8.0996C9.35273 8.0996 9.43587 8.0996 9.49823 8.25301C9.56058 8.40642 13.5826 16.3123 13.5826 16.3123C13.5826 16.3123 14.4763 17.1305 15.183 16.3021C15.7442 15.218 17.8643 11.0349 19.3089 8.17119C19.3089 8.17119 19.5791 8.01778 19.8078 8.10983C20.0364 8.20187 19.9325 8.38597 19.9325 8.38597L14.3204 19.4828C14.3308 19.4828 13.6553 20.4647 12.6888 19.5851Z" fill="url(#paint0_linear_1_134)"/>
<path fill-rule="evenodd" clip-rule="evenodd" d="M7.21182 8.66211L10.8077 12.9577L12.377 18.9408L7.21182 8.66211Z" fill="#1F231C" fill-opacity="0.0549828"/>
<path fill-rule="evenodd" clip-rule="evenodd" d="M9.72687 8.69278L10.7973 12.9577L13.3955 15.9236L9.72687 8.69278V8.69278Z" fill="#15191C" fill-opacity="0.0549828"/>
<path fill-rule="evenodd" clip-rule="evenodd" d="M12.3458 18.8794L10.7973 12.9577L13.3955 15.9134L13.7384 17.3146L12.3458 18.8794Z" fill="url(#paint1_linear_1_134)"/>
</g>
<defs>
<linearGradient id="paint0_linear_1_134" x1="-15.7129" y1="27.3918" x2="26.5049" y2="75.0317" gradientUnits="userSpaceOnUse">
<stop stop-color="#A875CF"/>
<stop offset="1" stop-color="#18BBFE"/>
</linearGradient>
<linearGradient id="paint1_linear_1_134" x1="8.26102" y1="28.4034" x2="22.8906" y2="31.6234" gradientUnits="userSpaceOnUse">
<stop stop-opacity="0.1"/>
<stop offset="1" stop-color="white" stop-opacity="0.01"/>
</linearGradient>
</defs>
</svg>
