<svg width="26" height="26" viewBox="0 0 26 26" fill="none" xmlns="http://www.w3.org/2000/svg">
<path opacity="0.2" d="M13 26C20.1797 26 26 20.1797 26 13C26 5.8203 20.1797 0 13 0C5.8203 0 0 5.8203 0 13C0 20.1797 5.8203 26 13 26Z" fill="#505050"/>
<mask id="mask0_1_120" style="mask-type:luminance" maskUnits="userSpaceOnUse" x="0" y="0" width="26" height="26">
<path d="M13 26C20.1797 26 26 20.1797 26 13C26 5.8203 20.1797 0 13 0C5.8203 0 0 5.8203 0 13C0 20.1797 5.8203 26 13 26Z" fill="white"/>
</mask>
<g mask="url(#mask0_1_120)">
<path fill-rule="evenodd" clip-rule="evenodd" d="M6.66326 9.30886C7.51766 8.81446 8.41206 8.42726 9.35286 8.14726C10.6345 7.76646 11.9353 7.58726 13.2713 7.61286C13.8921 7.62566 14.9257 7.72646 15.1001 7.79366C15.1065 7.80646 15.0937 7.81446 15.0793 7.81446C15.0201 7.84166 14.9529 7.86086 14.8921 7.88806C13.7913 8.34886 13.0105 9.31686 12.7833 10.4913C12.7497 10.6849 12.7305 10.8785 12.7241 11.0721C12.7177 11.3665 12.6905 11.6593 12.6041 11.9457C12.3097 12.9809 11.4633 13.7873 10.4153 14.0289C9.03926 14.3409 7.65046 13.6609 7.05046 12.3857C7.01686 12.3121 6.99126 12.2385 6.97686 12.1649C6.87606 11.7313 6.80406 11.2977 6.74966 10.8561C6.69046 10.3697 6.65686 9.88166 6.65686 9.39526C6.66326 9.36166 6.66326 9.34246 6.66326 9.30886Z" fill="#F7A800"/>
<path fill-rule="evenodd" clip-rule="evenodd" d="M16.4876 17.3101C16.5004 17.1837 16.5148 17.0701 16.5212 16.9501C16.5548 16.2893 16.414 15.6621 16.1004 15.0813C15.7996 14.5277 15.3788 14.0861 14.8396 13.7533C14.7932 13.7197 14.7388 13.6941 14.6924 13.6605C13.9516 13.1933 13.4972 12.5325 13.3372 11.6717C13.0508 10.1229 14.0252 8.62849 15.5532 8.26049C16.094 8.13409 16.6204 8.14689 17.1484 8.31329C17.582 8.44769 17.9964 8.62689 18.4092 8.82049C18.6956 8.95489 18.9692 9.10049 19.2444 9.25409C19.278 9.27489 19.3036 9.28769 19.3452 9.31329C19.3452 9.34049 19.3516 9.35969 19.3516 9.38689C19.3516 9.74049 19.3308 10.1005 19.3052 10.4541C19.2588 10.9741 19.1788 11.4957 19.0716 12.0029C18.7436 13.5117 18.1644 14.9069 17.3228 16.2013C17.0892 16.5613 16.8364 16.9085 16.5692 17.2429C16.542 17.2637 16.5276 17.2893 16.4876 17.3101Z" fill="#67B2E8"/>
<path fill-rule="evenodd" clip-rule="evenodd" d="M13.0052 20.2968C12.9044 20.2568 12.5988 20.0696 12.2708 19.8504C11.5428 19.364 10.8692 18.8024 10.2548 18.1752C9.64199 17.5464 9.09479 16.86 8.62599 16.1192C8.18599 15.4312 7.81959 14.7112 7.52519 13.9496C7.51879 13.9288 7.51239 13.916 7.50439 13.8824C7.53799 13.9032 7.55079 13.9096 7.57159 13.9224C7.80519 14.1032 8.05159 14.2568 8.31879 14.3688C8.65959 14.516 9.01319 14.6168 9.38599 14.6488C10.1396 14.7224 10.8468 14.5688 11.5156 14.1944C11.8628 14.0008 12.2372 13.8744 12.6308 13.82C14.026 13.6472 15.4148 14.4744 15.8484 15.916C16.0692 16.6568 16.002 17.3768 15.6612 18.0792C15.6148 18.172 15.5748 18.26 15.5268 18.3464C15.4996 18.3992 15.4676 18.4536 15.4196 18.4936C14.714 19.1624 13.9396 19.7496 13.0996 20.244C13.066 20.2632 13.0324 20.284 13.0052 20.2968Z" fill="#00C4B3"/>
</g>
</svg>
