<svg width="26" height="26" viewBox="0 0 26 26" fill="none" xmlns="http://www.w3.org/2000/svg">
<path opacity="0.2" d="M25.9295 13.0002C25.9295 20.1422 20.14 25.9318 12.9981 25.9318C5.85621 25.9318 0.0666199 20.1422 0.0666199 13.0002C0.0666199 5.85841 5.85621 0.0688171 12.9981 0.0688171C20.1399 0.0688171 25.9295 5.85841 25.9295 13.0002Z" fill="#D69331"/>
<path d="M11.9486 15.8286H16.133V17.9109H13.5565C13.5984 18.5068 13.6215 19.059 13.6634 19.6528H11.4957V17.9317H8.91925C8.91925 17.2507 8.8333 16.5718 8.96118 15.9344C9.02617 15.5939 9.41191 15.2971 9.6488 15.0002C10.4643 14.0431 11.2798 13.1088 12.1163 12.1517C12.4391 11.7905 12.7599 11.45 13.1246 11.0472H9.11212V8.96484H11.4936V7.22296H13.5754V8.92332H16.1728C16.1728 9.62505 16.2588 10.3039 16.1309 10.9434C16.0659 11.2839 15.6802 11.5808 15.4223 11.8777C14.6068 12.8348 13.7913 13.769 12.9548 14.7261C12.6362 15.1061 12.3154 15.4445 11.9486 15.8286Z" fill="#D69331"/>
</svg>
