<svg width="26" height="26" viewBox="0 0 26 26" fill="none" xmlns="http://www.w3.org/2000/svg">
<path opacity="0.1" d="M13 26C20.1797 26 26 20.1797 26 13C26 5.8203 20.1797 0 13 0C5.8203 0 0 5.8203 0 13C0 20.1797 5.8203 26 13 26Z" fill="#BEBEBE"/>
<path fill-rule="evenodd" clip-rule="evenodd" d="M13.0464 5H13.0952C14.712 5.0528 16.3136 5.5536 17.6392 6.4904C16.9776 6.9336 16.3072 7.3664 15.6328 7.7888C14.8728 7.4728 14.072 7.2008 13.2368 7.1904C12.0536 7.1336 10.8576 7.4608 9.86242 8.104C8.53522 8.9424 7.58082 10.3448 7.28642 11.8872C7.07922 12.8944 7.18482 13.944 7.48722 14.9216C7.56082 14.8936 7.62322 14.8504 7.67442 14.7912C8.08562 14.336 8.54322 13.9232 9.03682 13.5592C8.96962 12.8112 9.03362 12.036 9.36322 11.3504C9.96882 9.9768 11.4112 9.0104 12.9176 9.0168C13.8216 8.9776 14.728 9.284 15.44 9.8376C16.4048 10.5728 17.0072 11.7696 16.9912 12.9856C15.276 12.6224 13.4624 12.752 11.8112 13.3384C9.60962 14.108 7.71602 15.7128 6.59042 17.7536C4.97922 15.6384 4.57762 12.6872 5.52082 10.2048C6.30162 8.08 8.03682 6.3296 10.16 5.5408C11.0792 5.1816 12.0656 5.0384 13.0464 5Z" fill="#032052"/>
<path fill-rule="evenodd" clip-rule="evenodd" d="M21 12.856C20.9744 11.248 20.4472 9.64641 19.504 8.34241C19.3334 8.60491 19.1638 8.86814 18.9942 9.13138C18.7255 9.54845 18.4567 9.96558 18.184 10.38C18.7784 11.58 18.9712 12.9824 18.6608 14.2896C18.336 15.7368 17.4288 17.0416 16.1888 17.8544C14.4928 18.9952 12.1968 19.1072 10.3784 18.1864C10.0974 18.3757 9.81155 18.5582 9.52569 18.7407C9.12788 18.9946 8.73011 19.2485 8.34561 19.5208C9.61201 20.4184 11.1408 20.9504 12.6944 21H13.3072C15.4944 20.9328 17.6304 19.908 19.0528 18.2448C20.2728 16.8448 20.976 15.0048 21 13.1488V12.856ZM14.6848 13.5208C12.8888 13.5384 11.1072 14.152 9.68561 15.2512C10.252 16.1352 11.208 16.7528 12.2368 16.9488C13.1768 17.1304 14.1808 16.9688 15.0088 16.4856C16.0136 15.9072 16.7584 14.8736 16.9432 13.724C16.2008 13.5776 15.4424 13.5072 14.6848 13.5208Z" fill="url(#paint0_linear_1_530)"/>
<defs>
<linearGradient id="paint0_linear_1_530" x1="14.082" y1="3.51332" x2="3.41423" y2="15.0778" gradientUnits="userSpaceOnUse">
<stop stop-color="#00DFA1"/>
<stop offset="1" stop-color="#03ABE7"/>
</linearGradient>
</defs>
</svg>
